<mxfile host="app.diagrams.net" modified="2024-06-03T13:40:00.089Z" agent="Mozilla/5.0 (Windows NT 10.0; Win64; x64) AppleWebKit/537.36 (KHTML, like Gecko) Chrome/125.0.0.0 Safari/537.36" version="24.4.13" etag="thkmSuT1nR12-1iNO57b" type="github">
  <diagram name="Page-1" id="K6uOS4ZgQxQwhOqEkcya">
    <mxGraphModel>
      <root>
        <mxCell id="0" />
        <mxCell id="1" parent="0" />
      </root>
    </mxGraphModel>
  </diagram>
</mxfile>
